<svg xmlns="http://www.w3.org/2000/svg" viewBox="0 0 1080 1080" width="1080" height="1080" role="img" aria-label="РАБОТА 05">
  <defs>
    <linearGradient id="g" x1="0" y1="0" x2="0.4" y2="1">
      <stop offset="0" stop-color="#FEF5E4"/>
      <stop offset="1" stop-color="#F6E9D4"/>
    </linearGradient>
  </defs>
  <rect width="1080" height="1080" fill="url(#g)"/>
  <circle cx="540.0" cy="496.8" r="324.0" fill="none" stroke="#7D6A57" stroke-opacity="0.14" stroke-width="1"/>
  <circle cx="540.0" cy="496.8" r="432.0" fill="none" stroke="#7D6A57" stroke-opacity="0.084" stroke-width="1"/>
  <g transform="translate(334.80 266.98) scale(4.1040)" opacity=".30">
    <path d="M50 12 C38 12 30 20 30 32 C30 42 34 50 37 60 C39 68 41 76 45 76 C49 76 50 68 50 58 C50 68 51 76 55 76 C59 76 61 68 63 60 C66 50 70 42 70 32 C70 20 62 12 50 12 Z" fill="none" stroke="#7D6A57" stroke-width="2.4" stroke-linejoin="round"/>
  </g>
  <text x="540.0" y="955.8" text-anchor="middle" font-family="Georgia, 'Times New Roman', serif"
        font-size="64.8" fill="#4B4034" fill-opacity=".72" letter-spacing="1.5">РАБОТА 05</text>
  <text x="540.0" y="1020.6" text-anchor="middle" font-family="Helvetica, Arial, sans-serif"
        font-size="30.2" fill="#7D6A57" fill-opacity=".8" letter-spacing="2.2">ДО / ПОСЛЕ</text>
</svg>
